<?xml version="1.0" encoding="UTF-8" standalone="no"?>
<svg width="32px" height="32px" viewBox="0 0 32 32" version="1.1" xmlns="http://www.w3.org/2000/svg" xmlns:xlink="http://www.w3.org/1999/xlink" xmlns:sketch="http://www.bohemiancoding.com/sketch/ns">
    <!-- Generator: Sketch 3.5.2 (25235) - http://www.bohemiancoding.com/sketch -->
    <title>pinterest_L</title>
    <desc>Created with Sketch.</desc>
    <defs></defs>
    <g id="Page-1" stroke="none" stroke-width="1" fill="none" fill-rule="evenodd" sketch:type="MSPage">
        <g id="Desktop" sketch:type="MSArtboardGroup" transform="translate(-487.000000, -737.000000)" fill="#FF005F">
            <path d="M503,769 C511.836556,769 519,761.836556 519,753 C519,744.163444 511.836556,737 503,737 C494.163444,737 487,744.163444 487,753 C487,761.836556 494.163444,769 503,769 Z M503,767.72 C511.129632,767.72 517.72,761.129632 517.72,753 C517.72,744.870368 511.129632,738.28 503,738.28 C494.870368,738.28 488.28,744.870368 488.28,753 C488.28,761.129632 494.870368,767.72 503,767.72 Z M495.32,750.262046 C495.32,752.328472 496.100971,754.165912 497.774955,754.850644 C498.04896,754.962914 498.296341,754.855091 498.375104,754.549406 C498.430571,754.339318 498.561472,753.806872 498.620267,753.585667 C498.700139,753.285541 498.669077,753.178829 498.447211,752.917608 C497.964651,752.346257 497.656256,751.608168 497.656256,750.561061 C497.656256,747.526451 499.921515,744.809752 503.557909,744.809752 C506.776085,744.809752 508.544363,746.780581 508.544363,749.411688 C508.544363,752.874257 507.015701,755.797709 504.744896,755.797709 C503.49024,755.797709 502.551744,754.758383 502.853483,753.483402 C503.212907,751.962762 503.910677,750.32096 503.910677,749.221608 C503.910677,748.240084 503.383744,747.418627 502.294379,747.418627 C501.013099,747.418627 499.982528,748.749187 499.982528,750.527714 C499.982528,751.661524 500.365248,752.428514 500.365248,752.428514 C500.365248,752.428514 499.052907,757.997524 498.823275,758.973491 C498.36512,760.915419 498.754496,763.296421 498.787776,763.536522 C498.807744,763.678804 498.989675,763.712152 499.072875,763.60544 C499.190464,763.450931 500.716907,761.562358 501.236075,759.676008 C501.383616,759.141339 502.080277,756.373507 502.080277,756.373507 C502.496277,757.169398 503.712107,757.871916 505.006699,757.871916 C508.860523,757.871916 511.474112,754.351545 511.474112,749.639562 C511.474112,746.076952 508.463381,742.76 503.886272,742.76 C498.192064,742.76 495.32,746.851722 495.32,750.262046 Z" id="pinterest_L" sketch:type="MSShapeGroup"></path>
        </g>
    </g>
</svg>