<?xml version="1.0" encoding="UTF-8" standalone="no"?>
<svg width="32px" height="32px" viewBox="0 0 32 32" version="1.1" xmlns="http://www.w3.org/2000/svg" xmlns:xlink="http://www.w3.org/1999/xlink" xmlns:sketch="http://www.bohemiancoding.com/sketch/ns">
    <!-- Generator: Sketch 3.5.2 (25235) - http://www.bohemiancoding.com/sketch -->
    <title>facebook_L Copy</title>
    <desc>Created with Sketch.</desc>
    <defs></defs>
    <g id="Page-1" stroke="none" stroke-width="1" fill="none" fill-rule="evenodd" sketch:type="MSPage">
        <g id="Desktop" sketch:type="MSArtboardGroup" transform="translate(-407.000000, -737.000000)" fill="#5B94DB">
            <path d="M423,769 C431.836556,769 439,761.836556 439,753 C439,744.163444 431.836556,737 423,737 C414.163444,737 407,744.163444 407,753 C407,761.836556 414.163444,769 423,769 Z M423,767.72 C431.129632,767.72 437.72,761.129632 437.72,753 C437.72,744.870368 431.129632,738.28 423,738.28 C414.870368,738.28 408.28,744.870368 408.28,753 C408.28,761.129632 414.870368,767.72 423,767.72 Z M424.92512,742.67168 C424.25312,742.67168 423.608,742.75232 422.85536,743.048 C421.3232,743.66624 420.54368,745.11776 420.54368,747.37568 L420.54368,749.57984 L418.39328,749.57984 L418.39328,753.2624 L420.54368,753.2624 L420.54368,763.88 L424.92512,763.88 L424.92512,753.2624 L427.9088,753.2624 L428.312,749.57984 L424.92512,749.57984 L424.92512,747.91328 C424.92512,747.40256 424.97888,747.02624 425.11328,746.8112 C425.30144,746.48864 425.67776,746.32736 426.26912,746.32736 L428.25824,746.32736 L428.25824,742.67168 L424.92512,742.67168 Z" id="facebook_L-Copy" sketch:type="MSShapeGroup"></path>
        </g>
    </g>
</svg>