<?xml version="1.0" encoding="UTF-8" standalone="no"?>
<svg width="32px" height="32px" viewBox="0 0 32 32" version="1.1" xmlns="http://www.w3.org/2000/svg" xmlns:xlink="http://www.w3.org/1999/xlink" xmlns:sketch="http://www.bohemiancoding.com/sketch/ns">
    <!-- Generator: Sketch 3.5.2 (25235) - http://www.bohemiancoding.com/sketch -->
    <title>twitter_L Copy</title>
    <desc>Created with Sketch.</desc>
    <defs></defs>
    <g id="Page-1" stroke="none" stroke-width="1" fill="none" fill-rule="evenodd" sketch:type="MSPage">
        <g id="Desktop" sketch:type="MSArtboardGroup" transform="translate(-447.000000, -737.000000)" fill="#19BCD3">
            <path d="M463,769 C471.836556,769 479,761.836556 479,753 C479,744.163444 471.836556,737 463,737 C454.163444,737 447,744.163444 447,753 C447,761.836556 454.163444,769 463,769 Z M463,767.72 C471.129632,767.72 477.72,761.129632 477.72,753 C477.72,744.870368 471.129632,738.28 463,738.28 C454.870368,738.28 448.28,744.870368 448.28,753 C448.28,761.129632 454.870368,767.72 463,767.72 Z M458.296718,748.90202 C461.372984,750.455087 463.972784,750.365487 463.972784,750.365487 C463.972784,750.365487 462.987184,746.93082 466.033584,745.407621 C469.079983,743.884421 471.176344,746.452487 471.176344,746.452487 C471.176344,746.452487 471.707649,746.306638 472.103523,746.16079 C472.499397,746.014941 473.072374,745.754497 473.072374,745.754497 L472.133638,747.430087 L473.579148,747.276863 C473.579148,747.276863 473.400985,747.537358 472.822468,748.067937 C472.243951,748.598517 472.005516,748.87262 472.005516,748.87262 C472.005516,748.87262 472.212178,753.006924 470.034316,756.189952 C467.856454,759.37298 465.04253,761.283351 460.954851,761.685418 C456.867173,762.087485 454.204986,760.431018 454.204986,760.431018 C454.204986,760.431018 455.99273,760.328991 457.131919,759.893418 C458.271108,759.457846 459.909518,758.310485 459.909518,758.310485 C459.909518,758.310485 457.579918,757.593685 456.743652,756.787285 C455.907385,755.980886 455.698319,755.503019 455.698319,755.503019 L457.998052,755.473152 C457.998052,755.473152 455.578852,754.188886 454.891919,753.173419 C454.204986,752.157953 454.115386,751.172353 454.115386,751.172353 L455.883441,751.886327 C455.883441,751.886327 454.414052,749.888087 454.204986,748.33502 C453.995919,746.781954 454.473786,745.945687 454.473786,745.945687 C454.473786,745.945687 455.220452,747.348954 458.296718,748.90202 Z" id="twitter_L-Copy" sketch:type="MSShapeGroup"></path>
        </g>
    </g>
</svg>