<?xml version="1.0" encoding="UTF-8" standalone="no"?>
<svg width="382px" height="95px" viewBox="0 0 382 95" version="1.1" xmlns="http://www.w3.org/2000/svg" xmlns:xlink="http://www.w3.org/1999/xlink" xmlns:sketch="http://www.bohemiancoding.com/sketch/ns">
    <!-- Generator: Sketch 3.5.2 (25235) - http://www.bohemiancoding.com/sketch -->
    <title>Artboard</title>
    <desc>Created with Sketch.</desc>
    <defs></defs>
    <g id="Page-1" stroke="none" stroke-width="1" fill="none" fill-rule="evenodd" sketch:type="MSPage">
        <g id="Artboard" sketch:type="MSArtboardGroup" fill="#FFFFFF">
            <g id="Shape-+-HONEYMOON" sketch:type="MSLayerGroup" transform="translate(17.000000, 10.000000)">
                <path d="M55.1894118,5.6107179 C54.7079665,5.3743898 54.1815993,5.2894288 53.6444899,5.268921 C50.3798415,5.1409913 47.043904,5.4642335 43.818318,5.9544679 C42.9149977,6.0911867 42.0126539,6.2484132 41.1161696,6.4300538 C40.762654,6.5023194 40.0292555,6.8079835 39.8710524,6.3070069 C39.6972243,5.7562256 40.3778883,5.3597413 40.7284743,5.112671 C42.4413649,3.9007569 44.1903884,2.6937257 46.0634352,1.7406007 C46.3974196,1.5706788 47.0741774,1.2825929 46.9755446,0.7855226 C46.8681227,0.2650148 46.0116774,0.2874757 45.6073805,0.2620851 C44.5351149,0.1956788 43.4804274,0.3402101 42.4149977,0.432007 C38.1747633,0.8031008 33.9511305,1.5638429 29.8886305,2.8441164 C28.0741774,3.416382 26.2519117,4.0511477 24.5419508,4.8909914 C23.9862867,5.166382 23.4320875,5.5648195 22.8056227,5.6478273 C22.1283766,5.7386476 22.2660719,4.9710695 22.5067946,4.5980226 C23.2357985,3.4739992 24.2060134,2.3900148 25.2377516,1.5325929 C25.5639235,1.2611085 26.0316969,0.909546 26.0131422,0.4329835 C25.9862867,-0.2340087 25.1220289,0.0355226001 24.733357,0.1624757 C22.9980054,0.728882 21.295857,1.3997804 19.6381422,2.1644288 C16.6542555,3.5384522 13.818318,5.2249757 11.1635328,7.159546 C9.71822042,8.213257 8.37740012,9.400757 7.07515402,10.6243898 C5.94771262,11.682007 4.47115012,12.6712648 3.41548602,13.900757 C2.55757582,14.8978273 2.01753682,16.0999758 2.14351332,17.4398195 C2.28365002,18.9281008 2.81734142,20.3597414 1.88667742,21.6322023 C0.681111019,23.275757 1.04878682,25.5452882 1.36616962,27.4144289 C1.89448992,30.5179445 2.51411882,33.7366945 3.02241962,36.8900148 C3.07857192,37.2425539 3.03755632,37.7122804 2.67427512,37.9105226 C2.20406032,38.1693117 1.64156032,38.1331789 1.18892352,38.4700929 C0.549763319,38.9427492 0.225544619,39.5999757 0.0902907192,40.315796 C-0.193400681,41.822632 0.244099319,43.4515383 0.673298519,44.8900148 C1.20552512,46.6732179 1.89204852,48.4124757 2.50044692,50.1712648 C2.86958752,51.2386476 3.28804462,52.3079836 3.93941172,53.2425539 C4.45454842,53.8734133 4.93745862,54.0062258 5.66353282,54.2542727 C5.76314222,54.2874758 5.83540782,54.3284915 5.90962662,54.3695071 C6.60493912,57.1976321 7.39009542,59.7650149 8.13130632,60.8079837 C8.62788832,61.711304 9.24995862,62.5452884 9.95796652,63.2347415 C11.9081618,65.1292728 13.9320876,66.945679 15.9247634,68.7962649 C17.4301345,70.1927493 18.9594314,71.6790774 20.6381423,72.9017337 C21.9916579,74.0325931 23.8227126,74.3031009 25.5292556,74.3997806 C26.3656814,74.4193119 27.2084548,74.4486087 28.0448806,74.3997806 C29.7519119,74.3031009 31.5829665,74.0325931 32.9364822,72.9017337 C34.6151931,71.6790774 36.14449,70.1927493 37.6503494,68.7962649 C39.6425369,66.945679 41.6659744,65.1292727 43.6151932,63.2347415 C44.4306229,62.4417727 45.120076,61.4515384 45.6435135,60.3929446 C45.7499588,60.195679 45.8573807,59.9710696 45.9648026,59.7220462 C45.9823807,59.6771243 46.0048417,59.6341556 46.0204667,59.5911868 C46.5605058,58.3021243 47.1034745,56.4193118 47.5995683,54.3997805 C47.6864824,54.3470461 47.7860917,54.2962649 47.9110917,54.2542727 C48.6357011,54.0062258 49.1200761,53.8734133 49.6357011,53.2425539 C50.2870683,52.3079836 50.7040605,51.2386476 51.0741777,50.1712648 C51.6825761,48.4124757 52.368123,46.6732179 52.9013261,44.8900148 C53.3319902,43.4515382 53.767537,41.822632 53.4833574,40.315796 C53.3485918,39.5999757 53.0253496,38.9427491 52.3866777,38.4700929 C51.9315996,38.1331788 51.3710527,38.1693116 50.899373,37.9105226 C50.5370683,37.7122804 50.4960527,37.2425538 50.5526933,36.8900148 C50.7655839,35.5599367 50.9882402,34.228882 51.2157792,32.9017335 C51.4999589,31.2396241 51.852498,29.5921632 52.196248,27.9437257 C52.5165605,26.4114991 52.8983964,24.8265382 52.5360918,23.2679444 C52.1532793,21.6068116 51.171834,20.137085 50.2382402,18.7386475 C49.4218339,17.5169678 48.5888261,16.3070069 47.7226152,15.12146 C47.0321855,14.1761475 45.7958574,13.0648194 45.6786699,11.8343506 C45.5585524,10.5853273 46.9579665,10.0277101 47.9276931,9.713257 C50.0497634,9.0238039 52.1474197,8.2484132 54.2323806,7.4544679 C54.6181228,7.3089601 55.0966384,7.2015382 55.387654,6.8900148 C55.7382399,6.5140383 55.6864821,5.853882 55.1894118,5.6107179 L55.1894118,5.6107179 Z M28.5375563,15.7679445 C29.5702711,14.5374757 30.7431227,13.4300539 31.9052321,12.3255617 C32.6874587,11.5833742 33.4315993,11.0609133 34.4735915,10.7191164 C36.731404,9.9769289 39.028279,9.3597414 41.3427321,8.8236086 C41.7274977,8.7337648 43.9091384,8.0579836 44.0312087,8.697632 C44.0966384,9.0491945 43.5663649,9.2347414 43.3398024,9.3372804 C43.3280837,9.3421633 40.1142165,10.775757 40.1142165,10.775757 C37.7812087,11.8157961 35.5536696,13.0765383 33.2860915,14.2503664 C32.5878493,14.6116945 31.8505446,14.9906008 31.1601149,15.3988039 C30.481404,15.7962648 29.840779,16.2640383 29.1278883,16.6029055 C28.8798414,16.7210696 28.5478102,16.9241946 28.3471266,16.6390383 C28.1469313,16.3519289 28.3515212,15.9896242 28.5375563,15.7679445 L28.5375563,15.7679445 Z M4.65572042,50.4329836 C4.61958762,50.4114992 4.58150162,50.3636477 4.54390402,50.3040773 C4.10689232,49.6077882 3.82808372,48.8304445 3.58198992,48.0521242 C3.00825942,46.2406008 2.41304462,44.4193117 2.18111102,42.5247804 C2.11177512,41.9622804 1.89156022,40.9515382 2.41743912,40.5277101 C2.85103292,40.1800538 3.51363052,40.4066163 3.70943132,40.9085695 C4.03511492,41.7474367 3.84029072,42.4603273 3.75874772,43.3011476 C3.73091572,43.5853273 3.75435322,43.8255617 3.78316182,44.0687257 C3.92671652,45.2415773 4.14741962,46.4027101 4.39107202,47.5599366 C4.51314232,48.1448975 4.64253682,48.7269288 4.77144312,49.3099366 C4.80659932,49.4700929 5.10200952,50.6927492 4.65572042,50.4329836 L4.65572042,50.4329836 Z M12.0819899,49.0277101 C12.0570876,50.7640382 12.0448805,52.5013429 12.0297438,54.237671 C12.0273024,54.5169679 12.043904,54.8861085 11.830525,55.1009523 C11.5297437,55.4036867 11.280232,55.2230226 11.045857,54.9779054 C10.4423414,54.3441163 9.83491952,53.7337648 9.36226322,52.9925538 C9.05415772,52.5091554 8.76216552,52.0072022 8.56587652,51.4671632 C8.20113042,50.4613038 8.16402102,49.1663819 8.15962652,48.1087648 C8.15864992,47.6683351 8.10249762,46.7835695 8.66695072,46.6624757 C9.06197022,46.5804444 9.59956792,46.8265382 9.97896242,46.9134523 C10.4491772,47.0247804 10.9267163,47.1136476 11.3959546,47.2318117 C12.2450759,47.4456789 12.0888259,48.3548586 12.0819899,49.0277101 L12.0819899,49.0277101 Z M39.7851149,49.0950929 C39.6503493,52.2327882 39.6269118,56.9329835 39.4999586,59.9437257 C39.3993727,62.3236085 39.3036695,64.0872804 37.8886305,65.6575929 C36.8163649,66.6702882 35.7382399,67.6761476 34.6190992,68.6370851 C33.4403883,69.6488039 32.248982,70.869507 30.7948804,71.4769289 C29.9980054,71.8109133 29.0575757,71.8831789 28.3280835,71.3665773 C27.7226147,70.9378664 27.6835522,70.1361085 26.7875562,70.1361085 C25.8554273,70.1361085 25.7099195,71.1937257 24.9350171,71.5482179 C24.2314038,71.8724367 23.4745679,71.7679445 22.7792554,71.4769288 C21.3251538,70.8695069 20.1352124,69.6488038 18.9555249,68.637085 C17.8402905,67.6790772 16.7636304,66.6771241 15.6957593,65.6663819 C14.2729077,64.0941163 14.1776929,62.3275147 14.0756421,59.9437256 C13.9477124,56.9095459 13.9242749,52.1546631 13.7880444,49.0159912 C13.7646069,48.4857178 13.7592358,47.7669678 14.5033764,47.8236084 C15.0526928,47.8636475 15.5917553,47.9857178 16.1327709,48.083374 C16.8944897,48.2210693 17.0922436,48.911499 17.0736889,49.5980224 C17.0243725,51.3304443 16.9779858,53.0618896 16.9296459,54.7933349 C16.8734936,56.8529052 16.6230053,58.9700927 16.8754467,61.020874 C17.2411694,64.0032959 19.6679272,65.3128662 22.0482983,66.6322021 C23.0912671,67.208374 24.5146069,67.5814209 24.5170483,65.8753662 C24.5170483,63.9779053 24.4882397,62.0814209 24.4413647,60.1849365 C24.3500561,56.4027099 24.2016186,52.6204834 24.0922436,48.8372802 C24.0766186,48.3392333 24.0609936,47.8382568 24.0458569,47.3402099 C24.0336499,46.9241943 23.9784741,46.560913 24.2318921,46.2073974 C24.7489819,45.4866943 25.7304273,44.9818115 26.4272046,44.4407958 C26.7460523,44.1927489 26.8227124,44.1937255 27.1459546,44.4407958 C27.8256421,44.9564208 28.8407788,45.5081786 29.3427319,46.2073974 C29.5966382,46.560913 29.5409741,46.9241943 29.5282788,47.3402099 C29.5146069,47.8382568 29.4989819,48.3392333 29.4833569,48.8372802 C29.367146,52.6204833 29.2177319,56.4027099 29.132771,60.1849365 C29.0868726,62.0814209 29.0575757,63.9779053 29.0575757,65.8743896 C29.0575757,67.5657959 30.4970288,67.2005615 31.5253491,66.6331787 C33.8866772,65.3265381 36.3388257,63.9798584 36.7001538,61.020874 C36.9521069,58.9652099 36.7021069,56.8558349 36.6444897,54.7933349 C36.5976147,53.0618896 36.5507397,51.3304443 36.500935,49.5980224 C36.4833569,48.9652099 36.6552319,48.2230224 37.4403881,48.083374 C37.9833569,47.9857177 38.5204662,47.8636474 39.0702709,47.8236084 C39.8378493,47.7630617 39.7978102,48.5687258 39.7851149,49.0950929 L39.7851149,49.0950929 Z M21.8305251,57.1419679 C21.3446853,57.1116945 20.856404,57.034546 20.3759353,56.9505616 C19.9423415,56.8763428 19.4477126,56.793335 19.1024978,56.4954835 C18.6581619,56.1116944 18.793904,55.3577882 18.7797439,54.8382569 C18.9237869,54.2357178 19.7475173,53.9798585 20.3759353,53.8724366 C20.8564041,53.7894288 21.3437087,53.7103272 21.8300369,53.6820069 C22.5097244,53.6400147 22.3676346,54.4300538 22.3529861,54.8743897 C22.3344314,55.5023194 22.3144119,56.1292725 22.2948806,56.7572022 C22.2450759,57.0072023 22.087361,57.1595461 21.8305251,57.1419679 L21.8305251,57.1419679 Z M22.1825759,60.4017336 C22.156697,61.2034914 22.1361892,62.0052492 22.1073806,62.807007 C22.0795486,63.5697023 21.8031814,63.7122804 21.1415603,63.3441164 C20.4931228,62.9866945 19.7709548,62.4681398 19.4198806,61.7923586 C19.1645095,61.3011477 19.0463454,60.7835695 18.9794509,60.2532961 C18.9950759,59.7630617 19.3515212,59.5648195 20.1664626,59.5579836 C20.6752517,59.5863039 20.9013259,59.5531008 21.3930251,59.6917727 C21.7958571,59.8050539 22.1772048,59.8782961 22.1825759,60.4017336 L22.1825759,60.4017336 Z M21.6825759,51.025757 C21.1918532,51.1614992 20.6752517,51.2386476 20.1664626,51.2659914 C19.1464431,51.2562258 18.7025954,50.666382 18.6479079,50.0618898 C18.6391188,49.7552492 18.6298415,49.4495851 18.622029,49.1409914 C18.6020095,48.353882 19.281697,48.4671633 19.8451735,48.4173586 C20.6073805,48.3509523 21.3241774,48.1029055 21.974568,47.7034914 C22.1313063,47.6068117 22.5844313,47.4095461 22.5746657,47.7376711 C22.5634352,48.0775149 22.552693,48.4154055 22.5429274,48.7523195 C22.5273024,49.2786867 22.4672438,49.8197023 22.4672438,50.3411867 C22.4672438,50.838257 22.0854079,50.9124758 21.6825759,51.025757 L21.6825759,51.025757 Z M33.200154,56.9505617 C32.7206618,57.0345461 32.2323806,57.1116945 31.7440993,57.141968 C31.4833571,57.1595461 31.325154,57.0023196 31.2792555,56.7454836 C31.2587477,56.1214602 31.2411696,55.4984133 31.2216383,54.8743898 C31.2069899,54.4027101 31.0556227,53.6400148 31.7440992,53.682007 C32.2323805,53.7103273 32.7206617,53.7894289 33.2001539,53.8724367 C33.8280836,53.9798586 34.6493727,54.235718 34.7948805,54.8343508 C34.8661696,55.1234133 34.8769118,55.5364992 34.8007399,55.8900149 C34.7597243,56.0667727 34.6991774,56.2288821 34.6112868,56.3529055 C34.3114821,56.7767336 33.6737868,56.8704836 33.200154,56.9505617 L33.200154,56.9505617 Z M34.6044509,60.1839601 C34.5399978,60.7396242 34.4208571,61.2796632 34.1552321,61.7923585 C33.8036696,62.4681398 33.0819899,62.9866944 32.4335524,63.3441163 C31.7880446,63.7025147 31.4950758,63.5755616 31.4677321,62.8070069 C31.4384352,62.0081788 31.4169508,61.206421 31.3983962,60.3743897 C31.3983962,59.8782959 31.7802321,59.8050538 32.1835525,59.6917725 C32.6737869,59.5531006 32.8993728,59.5863037 33.4091384,59.5579834 C34.1903884,59.5648195 34.5614821,59.7386476 34.6044509,60.1839601 L34.6044509,60.1839601 Z M33.4091384,51.2659914 C32.8993728,51.2386476 32.3847243,51.1614992 31.8935134,51.025757 C31.4892165,50.9124757 31.1083571,50.838257 31.1083571,50.3411867 C31.1083571,49.8167726 31.0478102,49.2796633 31.0312087,48.7523195 C31.0204665,48.4154054 31.0116774,48.0775148 30.9999587,47.7376711 C30.9901931,47.4095461 31.4442946,47.6068117 31.6015212,47.7034914 C32.2509353,48.1029055 32.9667556,48.3509523 33.7294509,48.4173586 C34.2929275,48.4671633 34.9735915,48.353882 34.9530837,49.1409914 C34.9442946,49.4495852 34.9355056,49.760132 34.9267165,50.0687258 C34.8700759,50.6712648 34.4267165,51.2562258 33.4091384,51.2659914 L33.4091384,51.2659914 Z M45.4169509,48.1087648 C45.4110915,49.166382 45.3730056,50.4613039 45.0087478,51.4671632 C44.8124587,52.0072023 44.5214431,52.5091554 44.2128494,52.9925538 C43.7401931,53.7337647 43.1327713,54.3441163 42.5282791,54.9779054 C42.2948807,55.2230226 42.0458572,55.4036867 41.745076,55.1009523 C41.5302322,54.8861085 41.5478104,54.5169679 41.5458572,54.237671 C41.5302322,52.5013429 41.5165603,50.7640382 41.4931228,49.0277101 C41.4862869,48.3548585 41.3300369,47.4456788 42.1786697,47.2318117 C42.6474197,47.1136476 43.1249588,47.0247804 43.5966385,46.9134523 C43.9745682,46.8265382 44.5126541,46.5804445 44.9071854,46.6624757 C45.4726149,46.7835695 45.4169509,47.6683351 45.4169509,48.1087648 L45.4169509,48.1087648 Z M49.5536696,45.5296633 C49.6513259,45.0521242 49.7548415,44.5804445 49.7899977,44.0687258 C49.8202711,43.8255617 49.8427321,43.5853274 49.8153883,43.3011477 C49.7343336,42.4603274 49.5409742,41.7474368 49.865193,40.9085696 C50.0624586,40.4066165 50.724568,40.180054 51.1562086,40.5277102 C51.6835524,40.9515383 51.4618727,41.9622805 51.3944899,42.5247805 C51.1610915,44.4193118 50.5663649,46.2406008 49.9931227,48.0521243 C49.7948805,48.6741946 49.5878493,49.3011477 49.2626539,49.8695071 C49.1698805,50.0316165 48.9853101,50.4730227 48.7343336,50.3890384 C48.4530836,50.2913821 48.6230055,49.851929 48.6649977,49.6624759 C48.762654,49.2034915 48.8642165,48.7435306 48.9638258,48.2845462 C49.1620681,47.3675539 49.3632399,46.4486086 49.5536696,45.5296633 L49.5536696,45.5296633 Z M47.0937087,30.6390383 C47.4110915,30.7386477 47.7450759,30.9085696 48.0224196,31.0921633 C49.3300368,31.9554446 48.8153884,33.8031008 48.7069899,35.0941164 C48.599568,36.2904055 48.5077711,37.4866945 48.3690993,38.6800539 C48.2421462,39.7952883 48.0507399,40.9114992 47.7148024,41.9866945 C47.5663649,42.4583742 47.3476149,43.0482179 46.7997633,43.1800539 C46.1825758,43.3265383 45.3564039,43.4447023 44.3476149,43.6175539 C42.2851149,43.9281008 39.4833571,44.291382 36.7040602,44.5355227 C36.0038649,44.6009524 35.318318,44.648804 34.6610914,44.6741946 C33.6103101,44.7591555 32.8329664,43.9095462 32.0478101,43.3216555 C31.5741773,42.9456789 31.1249585,42.5941164 30.7118726,42.266968 C29.8788648,41.6077883 29.1923413,41.0550539 28.6659742,40.6595461 C28.3612867,40.4290773 28.0575758,40.1898195 27.7113844,40.025757 C26.681111,39.5355226 25.7226149,40.0482179 24.9081617,40.6595461 C24.3813062,41.0550539 23.6957594,41.6077883 22.8622633,42.266968 C22.4491774,42.5941164 22.0004469,42.9456789 21.5263258,43.3216555 C20.7421461,43.9095461 19.9648024,44.7591555 18.9135328,44.6741946 C18.2567945,44.648804 17.5707594,44.6009524 16.8710523,44.5355227 C14.0907789,44.2913821 11.2904859,43.9281008 9.22847422,43.6175539 C8.21870862,43.4447023 7.39204842,43.3265383 6.77388442,43.1800539 C6.22700942,43.048218 6.00728282,42.4583742 5.86079852,41.9866945 C5.52339622,40.9114992 5.33296652,39.7952882 5.20406022,38.6800539 C5.06734142,37.4866945 4.97505632,36.2904055 4.86812272,35.0941164 C4.76021252,33.8031008 4.24507582,31.9554445 5.55220472,31.0921633 C5.83003672,30.9085695 6.16402112,30.7386477 6.48140392,30.6390383 C8.80513442,29.9046633 8.92671642,28.9671633 8.92671642,27.5003664 C8.92671642,26.3421633 8.78316172,25.1761476 8.69380622,24.0238039 C8.55025152,22.1527101 8.07954842,20.2347414 9.40767342,18.650757 C10.4760328,17.3763429 12.2069898,16.7493898 13.7899976,16.4290773 C14.6791578,16.2484132 15.6161695,16.1234132 16.523396,16.097046 C19.9120679,15.9993897 23.2929273,16.7952882 26.4794507,17.8861085 C27.4511304,18.2191163 28.4784741,18.8577882 29.5653882,18.7601319 C30.6337476,18.6624756 31.3554273,18.0941163 32.2362866,17.543335 C33.5058179,16.74646 34.6005444,15.9710694 36.1093335,15.699585 C37.4648023,15.4554444 38.9999585,15.8118897 40.2782788,16.2659913 C41.3056226,16.6292726 42.2929272,17.1331788 43.1523022,17.7991944 C44.4218335,18.7816163 45.1894116,19.7581788 45.0448803,21.3988038 C44.9169506,22.8392335 44.8368725,24.2933351 44.7392162,25.7386476 C44.7001537,26.3216554 44.6483959,26.9154054 44.6483959,27.5003664 C44.6483962,28.9671633 44.7694899,29.9046633 47.0937087,30.6390383 L47.0937087,30.6390383 Z" id="Shape" opacity="0.6" sketch:type="MSShapeGroup"></path>
                <text id="HONEYMOON" opacity="0.5" sketch:type="MSTextLayer" font-family="Roboto Condensed" font-size="36" font-style="condensed" font-weight="bold" line-spacing="38" letter-spacing="10">
                    <tspan x="83" y="60">HONEY</tspan>
                    <tspan x="235.304688" y="60.1621094" font-weight="260">MOO</tspan>
                    <tspan x="330.185547" y="60.1621094" font-weight="260">N</tspan>
                </text>
            </g>
        </g>
    </g>
</svg>